<svg id="Layer_5" enable-background="new 0 0 64 64" height="512" viewBox="0 0 64 64" width="512" xmlns="http://www.w3.org/2000/svg"><g><path d="m59 61v-7.697l-5.132 7.697h-2.404l6.667-10h-2.131v-33c0-1.105-.895-2-2-2s-2 .895-2 2v13.014l-11.527-6.927c.339.923.527 1.895.527 2.913 0 .832-.122 1.62-.31 2.356l11.31 6.672v14.972h-3.465l-6.667 10h-6.761l1.206-10.539c-.983.256-2.085.438-3.314.503v10.036h-2v-10.035c-1.23-.066-2.331-.247-3.314-.503l1.207 10.538h-9.421l-4.375-10h-6.192l-4.375 10h-3.529v2h62v-2zm-51.721 0 2.772-8.316 1.897.633-2.56 7.683zm7.333 0-2.561-7.684 1.897-.633 2.773 8.317z"/><path d="m27.591 35c-1.839 3.374-4.307 8.493-4.568 10.658.77.83 3.552 3.342 8.977 3.342 5.404 0 8.207-2.521 8.977-3.344-.263-2.166-2.729-7.283-4.568-10.656z"/><path d="m14 47v-11.931l9.324-5.637c-.199-.757-.324-1.571-.324-2.432 0-.991.18-1.937.501-2.838l-9.501 5.871v-12.033c0-1.105-.895-2-2-2s-2 .895-2 2v29l-1 2h6z"/><path d="m35.561 22.046c-.775 1.212-2.098 1.954-3.561 1.954s-2.786-.742-3.561-1.954c-1.068.159-2.014.763-2.545 1.661-.593 1.002-.894 2.11-.894 3.293 0 2.874 1.761 5.206 2.442 6h9.114c.68-.798 2.444-3.144 2.444-6 0-1.183-.301-2.291-.894-3.293-.532-.898-1.477-1.502-2.545-1.661z"/><path d="m23 21h2.768c.707-.484 1.527-.813 2.4-.939l.251-1.257c-1.464-1.096-2.419-2.838-2.419-4.804v-4h1.171c1.557 0 3.021-.606 4.122-1.707l.707-.707.707.707c1.101 1.101 2.565 1.707 4.122 1.707h1.171v4c0 1.966-.955 3.708-2.42 4.804l.251 1.257c.873.127 1.693.455 2.4.939h2.769c.551 0 1-.448 1-1s-.449-1-1-1h-1v-8c0-4.411-3.589-8-8-8s-8 3.589-8 8v8h-1c-.551 0-1 .448-1 1s.449 1 1 1z"/><path d="m36 14v-2.043c-1.466-.153-2.843-.712-4-1.622-1.157.91-2.534 1.469-4 1.622v2.043c0 2.206 1.794 4 4 4s4-1.794 4-4z"/><path d="m30.271 19.744-.219 1.096c.394.713 1.127 1.16 1.948 1.16s1.554-.447 1.948-1.161l-.219-1.096c-.548.166-1.128.257-1.729.257s-1.181-.091-1.729-.256z"/></g></svg>