<?xml version="1.0" encoding="iso-8859-1"?>
<!-- Generator: Adobe Illustrator 19.0.0, SVG Export Plug-In . SVG Version: 6.00 Build 0)  -->
<svg version="1.1" id="Capa_1" xmlns="http://www.w3.org/2000/svg" xmlns:xlink="http://www.w3.org/1999/xlink" x="0px" y="0px"
	 viewBox="0 0 512 512" style="enable-background:new 0 0 512 512;" xml:space="preserve">
<g>
	<g>
		<path d="M392.1,339.124v172.154H512V496.29C512,421.336,461.126,358.052,392.1,339.124z"/>
	</g>
</g>
<g>
	<g>
		<path d="M349.053,333.342H332.15v90.483H179.85v-90.483h-16.903c-4.4,0-8.759,0.181-13.072,0.526v177.41h212.249v-177.41
			C357.811,333.523,353.453,333.342,349.053,333.342z"/>
	</g>
</g>
<g>
	<g>
		<path d="M0,496.29v14.988h119.9V339.124C50.874,358.052,0,421.337,0,496.29z"/>
	</g>
</g>
<g>
	<g>
		<rect x="209.825" y="333.343" width="92.353" height="60.51"/>
	</g>
</g>
<g>
	<g>
		<path d="M354.996,82.654H157.003c-23.98,25.158-37.71,58.749-37.71,94.287C119.295,252.32,180.621,313.646,256,313.646
			s136.705-61.326,136.705-136.705C392.705,141.405,378.976,107.812,354.996,82.654z"/>
	</g>
</g>
<g>
	<g>
		<path d="M263.855,0.722h-15.711c-33.305,0-61.593,21.846-71.319,51.957h158.348C325.448,22.569,297.161,0.722,263.855,0.722z"/>
	</g>
</g>
<g>
</g>
<g>
</g>
<g>
</g>
<g>
</g>
<g>
</g>
<g>
</g>
<g>
</g>
<g>
</g>
<g>
</g>
<g>
</g>
<g>
</g>
<g>
</g>
<g>
</g>
<g>
</g>
<g>
</g>
</svg>
